<svg width="144" height="97" viewBox="0 0 144 97" fill="none" xmlns="http://www.w3.org/2000/svg">
<path d="M64.2222 45.3446L67.7778 40.2343C66.7407 34.6056 64.2667 22.3706 62.6667 18.4601C61.0667 14.5496 58.8889 16.5345 58 18.0157C57.8519 18.0898 56.6222 21.8818 52.8889 36.4572C49.1556 51.0326 40.6667 55.7133 36.8889 56.2317H0.222222V61.1198H36.8889C53.6 59.3423 59.4074 39.3456 60.2222 29.5694L64.2222 45.3446Z" fill="#3578FF"/>
<path d="M94 46.7993L98.4445 44.2337L104.222 68.0076C106.889 51.2992 117.778 46.0852 122.889 45.5668H144V50.4549C140.815 50.3808 132.133 50.4105 122.889 51.1214C111.333 52.0102 110.667 65.3414 107.778 72.2291C105.467 77.7393 101.926 75.5619 100.444 73.7844L94 46.7993Z" fill="#3578FF"/>
<path d="M41.1111 30.6803C34.2222 30.0138 34 36.235 35.3333 39.1234C34.9778 40.5454 32.4444 44.6781 25.5556 46.2334L0.222222 46.4555V50.8993H27.7778C34.7111 50.1883 39.2593 43.9374 40.6667 40.9009C42.9778 40.9009 44.2222 39.79 45.1111 38.0125C46.5333 32.8578 43.5556 31.1247 41.1111 30.6803Z" fill="#3578FF"/>
<path d="M120 67.341C114.444 61.5455 121.111 57.5648 125.333 58.2314C128.533 56.0984 133.185 55.417 135.111 55.343H143.778V60.2311H135.111C130.889 60.6754 128.815 61.342 128.444 62.2307C127.556 71.7847 121.333 68.2111 120 67.341Z" fill="#3578FF"/>
<path d="M30.4445 75.1176H35.3334C36.7556 79.7391 44.2223 81.4869 47.7778 81.7832C50.8 91.9149 58.8148 91.6334 62.4445 90.2262C72.0445 84.8937 69.4074 68.1557 66.8889 60.4533L70.8889 56.4539L74.4445 72.2292C77.6444 51.9658 87.1852 40.8269 91.5556 37.7903C91.2 36.3683 88 23.8666 86.4445 17.7935C81.1111 36.6794 68.6667 53.1211 62.8889 60.0089C58.2667 65.5191 47.9259 69.5629 43.3333 70.896L0 71.3404V66.2301L43.3333 65.5635C53.1111 62.5418 58.6667 57.6389 60.2222 55.5652C65.7333 51.8324 74.8148 33.4206 78.6667 24.6813C80 20.2376 83.3333 11.3057 86 11.128C88.6667 10.9502 90.3704 12.9795 90.8889 14.0164L96.6667 35.7906C102.178 33.4799 112.148 36.4572 116.444 38.2347C117.333 32.5467 110.741 28.6066 107.333 27.3475C107.481 25.0516 107.156 19.7488 104.667 16.9048C102.178 14.0608 97.8519 13.7942 96 14.0164C94.963 11.2761 91.3778 5.61775 85.3333 4.90675C79.2889 4.19576 75.8519 9.94297 74.8889 12.9054V25.5701L69.3333 34.9019V12.9054C68 9.94297 63.7778 4.19576 57.5556 4.90675C51.3333 5.61775 48.4444 11.4242 47.7778 14.2386C36.7556 13.7053 35.7778 22.7557 36.6667 27.3475C26.8889 29.836 26.2222 38.0125 27.1111 41.7896L22.4445 42.234C20.4889 31.3913 27.7038 25.4219 31.5556 23.7926C32.0889 13.4831 40.2223 10.1652 44.2223 9.79484C46.0741 6.68425 51.5112 0.374184 58.4445 0.0187059C65.3778 -0.336772 70.5186 4.46243 72.2223 6.90647C74.1482 4.53649 79.6889 -0.159043 86.4445 0.0187059C93.2001 0.196455 98.1482 6.61023 99.7778 9.79489C101.911 9.79489 105.556 11.8686 107.111 12.9055C111.378 15.2162 112.445 21.4226 112.445 24.237C113.63 24.3851 116.667 25.6145 119.333 29.3473C122 33.08 121.926 39.9381 121.556 42.9006C120.519 43.345 118.178 44.1448 117.111 43.7893C116.045 43.4338 111.037 41.5675 108.667 40.6788C99.7778 38.1903 92.3704 43.4931 89.7778 46.4556C88.2223 47.7887 84.2667 53.9655 80.8889 68.0076C76.6667 85.5603 75.3334 82.2275 75.1112 83.3385C74.9334 84.2272 75.926 85.9306 76.4445 86.6713C77.926 88.8931 82.2223 92.8925 87.5556 91.115C92.8889 89.3375 95.5556 84.1531 96.2223 81.7832C106.178 81.7832 109.407 75.4138 109.778 72.2292L113.778 70.896C114.667 81.3832 104.963 85.7825 100 86.6713C98.963 89.2634 95.0223 94.8033 87.5556 96.2253C80.0889 97.6472 74.0741 92.0778 72.0001 89.1153C71.3334 90.8187 68.0889 94.6255 60.4445 96.2253C52.8001 97.825 46.2963 90.2262 44.0001 86.2269C35.4667 86.2269 31.4075 78.8207 30.4445 75.1176Z" fill="#3578FF"/>
<path d="M63.5556 77.7651C63.5556 80.9556 60.9688 83.5419 57.7778 83.5419C54.5868 83.5419 52 80.9556 52 77.7651C52 74.5746 54.5868 71.9883 57.7778 71.9883C60.9688 71.9883 63.5556 74.5746 63.5556 77.7651Z" fill="#3578FF"/>
<path d="M45.7778 35.5498C45.7778 38.7402 43.191 41.3266 40 41.3266C36.809 41.3266 34.2222 38.7402 34.2222 35.5498C34.2222 32.3593 36.809 29.7729 40 29.7729C43.191 29.7729 45.7778 32.3593 45.7778 35.5498Z" fill="#3578FF"/>
<path d="M129.333 63.1008C129.333 66.2913 126.747 68.8777 123.556 68.8777C120.365 68.8777 117.778 66.2913 117.778 63.1008C117.778 59.9104 120.365 57.324 123.556 57.324C126.747 57.324 129.333 59.9104 129.333 63.1008Z" fill="#3578FF"/>
</svg>
