<svg xmlns="http://www.w3.org/2000/svg" viewBox="0 0 84 84">
  <rect width="84" height="84" rx="18" fill="#ffffff"/>
  <g transform="translate(0,13)">
    <path d="M37.463 26.2521L39.537 23.2936C38.9321 20.0348 37.4889 12.9514 36.5556 10.6874C35.6222 8.42347 34.3519 9.5726 33.8333 10.4302C33.7469 10.473 33.0296 12.6684 30.8519 21.1068C28.6741 29.5452 23.7222 32.2551 21.5185 32.5552H0.12963V35.3852H21.5185C31.2667 34.3561 34.6543 22.779 35.1296 17.1191L37.463 26.2521Z" fill="#3578FF"/>
    <path d="M54.8333 27.0943L57.4259 25.609L60.7963 39.3728C62.3519 29.6995 68.7037 26.6809 71.6852 26.3808H84V29.2107C82.142 29.1678 77.0778 29.185 71.6852 29.5966C64.9444 30.1112 64.5556 37.8292 62.8704 41.8169C61.5222 45.007 59.4568 43.7464 58.5926 42.7173L54.8333 27.0943Z" fill="#3578FF"/>
    <path d="M23.9815 17.7623C19.963 17.3764 19.8333 20.9781 20.6111 22.6504C20.4037 23.4736 18.9259 25.8662 14.9074 26.7667L0.12963 26.8953V29.468H16.2037C20.2481 29.0564 22.9012 25.4375 23.7222 23.6795C25.0704 23.6795 25.7963 23.0363 26.3148 22.0072C27.1444 19.0229 25.4074 18.0196 23.9815 17.7623Z" fill="#3578FF"/>
    <path d="M70 38.9869C66.7592 35.6316 70.6481 33.327 73.1111 33.7129C74.9778 32.478 77.6914 32.0835 78.8148 32.0407H83.8704V34.8706H78.8148C76.3519 35.1279 75.142 35.5138 74.9259 36.0283C74.4074 41.5596 70.7778 39.4906 70 38.9869Z" fill="#3578FF"/>
    <path d="M17.7593 43.4891H20.6111C21.4408 46.1647 25.7963 47.1766 27.8704 47.3481C29.6333 53.2139 34.3086 53.0509 36.4259 52.2362C42.0259 49.149 40.4877 39.4586 39.0185 34.9993L41.3519 32.6838L43.4259 41.8169C45.2926 30.0855 50.858 23.6366 53.4074 21.8786C53.2 21.0553 51.3333 13.8175 50.4259 10.3015C47.3148 21.2354 40.0556 30.7543 36.6852 34.742C33.9889 37.9321 27.9568 40.2732 25.2778 41.0451L0 41.3023V38.3437L25.2778 37.9578C30.9815 36.2084 34.2222 33.3699 35.1296 32.1693C38.3444 30.0083 43.642 19.3488 45.8889 14.2892C46.6667 11.7165 48.6111 6.54541 50.1667 6.4425C51.7222 6.3396 52.716 7.51445 53.0185 8.11475L56.3889 20.7209C59.6037 19.3831 65.4197 21.1068 67.9259 22.1359C68.4444 18.8428 64.5988 16.5617 62.6111 15.8328C62.6975 14.5036 62.5074 11.4335 61.0556 9.78699C59.6037 8.14047 57.0802 7.98611 56 8.11475C55.3951 6.52826 53.3037 3.25238 49.7778 2.84075C46.2519 2.42912 44.2469 5.75646 43.6852 7.47158V14.8037L40.4444 20.2063V7.47158C39.6667 5.75646 37.2037 2.42912 33.5741 2.84075C29.9444 3.25238 28.2593 6.61402 27.8704 8.24338C21.4407 7.93466 20.8704 13.1743 21.3889 15.8328C15.6852 17.2735 15.2963 22.0072 15.8148 24.194L13.0926 24.4513C11.9519 18.1739 16.1605 14.718 18.4074 13.7746C18.7185 7.80602 23.463 5.88509 25.7963 5.6707C26.8766 3.86983 30.0482 0.216633 34.0926 0.0108298C38.1371 -0.194973 41.1358 2.58351 42.1297 3.99848C43.2531 2.62639 46.4852 -0.0920774 50.426 0.0108298C54.3667 0.113737 57.2531 3.82697 58.2037 5.67073C59.4482 5.67073 61.5741 6.87131 62.4815 7.4716C64.9704 8.8094 65.5926 12.4026 65.5926 14.0319C66.284 14.1177 68.0556 14.8295 69.6111 16.9905C71.1667 19.1516 71.1235 23.1221 70.9074 24.8372C70.3025 25.0945 68.9371 25.5575 68.3148 25.3517C67.6926 25.1459 64.7716 24.0654 63.3889 23.5509C58.2037 22.1102 53.8827 25.1802 52.3704 26.8953C51.463 27.6671 49.1556 31.2432 47.1852 39.3728C44.7222 49.5349 43.9445 47.6054 43.8148 48.2486C43.7111 48.7631 44.2901 49.7493 44.5926 50.1781C45.4568 51.4644 47.963 53.7798 51.0741 52.7508C54.1852 51.7217 55.7408 48.7202 56.1297 47.3481C61.9371 47.3481 63.821 43.6606 64.0371 41.8169L66.3704 41.0451C66.8889 47.1166 61.2284 49.6636 58.3334 50.1781C57.7284 51.6788 55.4297 54.8861 51.0741 55.7094C46.7185 56.5326 43.2099 53.3082 42 51.5931C41.6111 52.5793 39.7185 54.7832 35.2593 55.7094C30.8 56.6355 27.0062 52.2362 25.6667 49.9208C20.6889 49.9208 18.321 45.633 17.7593 43.4891Z" fill="#3578FF"/>
    <path d="M37.0741 45.0219C37.0741 46.869 35.5651 48.3664 33.7037 48.3664C31.8423 48.3664 30.3333 46.869 30.3333 45.0219C30.3333 43.1748 31.8423 41.6774 33.7037 41.6774C35.5651 41.6774 37.0741 43.1748 37.0741 45.0219Z" fill="#3578FF"/>
    <path d="M26.7037 20.5814C26.7037 22.4285 25.1947 23.9259 23.3333 23.9259C21.4719 23.9259 19.963 22.4285 19.963 20.5814C19.963 18.7343 21.4719 17.237 23.3333 17.237C25.1947 17.237 26.7037 18.7343 26.7037 20.5814Z" fill="#3578FF"/>
    <path d="M75.4444 36.5321C75.4444 38.3792 73.9355 39.8765 72.0741 39.8765C70.2127 39.8765 68.7037 38.3792 68.7037 36.5321C68.7037 34.685 70.2127 33.1876 72.0741 33.1876C73.9355 33.1876 75.4444 34.685 75.4444 36.5321Z" fill="#3578FF"/>
  </g>
</svg>
