<svg width="144" height="152" viewBox="0 0 144 152" fill="none" xmlns="http://www.w3.org/2000/svg">
<path d="M64.2222 45.3446L67.7778 40.2343C66.7407 34.6056 64.2667 22.3706 62.6667 18.4601C61.0667 14.5496 58.8889 16.5345 58 18.0157C57.8519 18.0898 56.6222 21.8818 52.8889 36.4572C49.1556 51.0326 40.6667 55.7133 36.8889 56.2317H0.222222V61.1198H36.8889C53.6 59.3423 59.4074 39.3456 60.2222 29.5694L64.2222 45.3446Z" fill="#3578FF"/>
<path d="M94 46.7993L98.4445 44.2337L104.222 68.0076C106.889 51.2992 117.778 46.0852 122.889 45.5668H144V50.4549C140.815 50.3808 132.133 50.4104 122.889 51.1214C111.333 52.0102 110.667 65.3413 107.778 72.2291C105.467 77.7393 101.926 75.5619 100.444 73.7844L94 46.7993Z" fill="#3578FF"/>
<path d="M41.1111 30.6803C34.2222 30.0138 34 36.235 35.3333 39.1234C34.9778 40.5454 32.4444 44.6781 25.5556 46.2334L0.222222 46.4555V50.8993H27.7778C34.7111 50.1883 39.2593 43.9374 40.6667 40.9009C42.9778 40.9009 44.2222 39.79 45.1111 38.0125C46.5333 32.8578 43.5556 31.1247 41.1111 30.6803Z" fill="#3578FF"/>
<path d="M120 67.341C114.444 61.5455 121.111 57.5648 125.333 58.2314C128.533 56.0984 133.185 55.417 135.111 55.343H143.778V60.2311H135.111C130.889 60.6754 128.815 61.342 128.444 62.2307C127.556 71.7847 121.333 68.2111 120 67.341Z" fill="#3578FF"/>
<path d="M30.4445 75.1176H35.3334C36.7556 79.7391 44.2223 81.4869 47.7778 81.7832C50.8 91.9149 58.8148 91.6334 62.4444 90.2262C72.0445 84.8937 69.4074 68.1557 66.8889 60.4533L70.8889 56.4539L74.4445 72.2292C77.6445 51.9658 87.1852 40.8269 91.5556 37.7903C91.2 36.3683 88 23.8666 86.4444 17.7935C81.1111 36.6794 68.6667 53.1211 62.8889 60.0089C58.2667 65.5191 47.9259 69.5629 43.3333 70.896L0 71.3404V66.2301L43.3333 65.5635C53.1111 62.5418 58.6667 57.6389 60.2222 55.5652C65.7333 51.8324 74.8148 33.4206 78.6667 24.6813C80 20.2376 83.3333 11.3057 86 11.128C88.6667 10.9502 90.3704 12.9795 90.8889 14.0164L96.6667 35.7906C102.178 33.4799 112.148 36.4572 116.444 38.2347C117.333 32.5467 110.741 28.6066 107.333 27.3475C107.481 25.0516 107.156 19.7488 104.667 16.9048C102.178 14.0608 97.8519 13.7942 96 14.0164C94.963 11.2761 91.3778 5.61775 85.3333 4.90675C79.2889 4.19576 75.8519 9.94297 74.8889 12.9054V25.5701L69.3333 34.9019V12.9054C68 9.94297 63.7778 4.19576 57.5556 4.90675C51.3333 5.61775 48.4444 11.4242 47.7778 14.2386C36.7556 13.7053 35.7778 22.7557 36.6667 27.3475C26.8889 29.836 26.2222 38.0125 27.1111 41.7896L22.4445 42.234C20.4889 31.3913 27.7038 25.4219 31.5556 23.7926C32.0889 13.4831 40.2223 10.1652 44.2223 9.79484C46.0741 6.68425 51.5112 0.374184 58.4445 0.0187059C65.3778 -0.336772 70.5186 4.46243 72.2223 6.90647C74.1482 4.53649 79.6889 -0.159043 86.4445 0.0187059C93.2001 0.196455 98.1482 6.61023 99.7778 9.79489C101.911 9.79489 105.556 11.8686 107.111 12.9055C111.378 15.2162 112.445 21.4226 112.445 24.237C113.63 24.3851 116.667 25.6145 119.333 29.3473C122 33.08 121.926 39.9381 121.556 42.9006C120.519 43.345 118.178 44.1448 117.111 43.7893C116.045 43.4338 111.037 41.5675 108.667 40.6788C99.7778 38.1903 92.3704 43.4931 89.7778 46.4556C88.2223 47.7887 84.2667 53.9655 80.8889 68.0076C76.6667 85.5603 75.3334 82.2275 75.1112 83.3385C74.9334 84.2272 75.926 85.9306 76.4445 86.6713C77.926 88.8931 82.2223 92.8925 87.5556 91.115C92.8889 89.3375 95.5556 84.1531 96.2223 81.7832C106.178 81.7832 109.407 75.4138 109.778 72.2292L113.778 70.896C114.667 81.3832 104.963 85.7825 100 86.6713C98.963 89.2634 95.0223 94.8033 87.5556 96.2253C80.0889 97.6472 74.0741 92.0778 72.0001 89.1153C71.3334 90.8187 68.0889 94.6255 60.4445 96.2253C52.8001 97.825 46.2963 90.2262 44.0001 86.2269C35.4667 86.2269 31.4075 78.8207 30.4445 75.1176Z" fill="#3578FF"/>
<path d="M63.5556 77.7651C63.5556 80.9556 60.9688 83.5419 57.7778 83.5419C54.5868 83.5419 52 80.9556 52 77.7651C52 74.5746 54.5868 71.9883 57.7778 71.9883C60.9688 71.9883 63.5556 74.5746 63.5556 77.7651Z" fill="#3578FF"/>
<path d="M45.7778 35.5498C45.7778 38.7402 43.191 41.3266 40 41.3266C36.809 41.3266 34.2222 38.7402 34.2222 35.5498C34.2222 32.3593 36.809 29.7729 40 29.7729C43.191 29.7729 45.7778 32.3593 45.7778 35.5498Z" fill="#3578FF"/>
<path d="M129.333 63.1008C129.333 66.2913 126.747 68.8777 123.556 68.8777C120.365 68.8777 117.778 66.2913 117.778 63.1008C117.778 59.9104 120.365 57.324 123.556 57.324C126.747 57.324 129.333 59.9104 129.333 63.1008Z" fill="#3578FF"/>
<path d="M45.771 119.01C45.5501 119.395 45.3108 119.68 45.053 119.863C44.8137 120.028 44.51 120.111 44.1418 120.111C43.7552 120.111 43.3318 119.973 42.8716 119.698C42.4298 119.405 41.8959 119.084 41.27 118.735C40.6441 118.387 39.9078 118.075 39.061 117.8C38.2326 117.506 37.2477 117.359 36.1064 117.359C35.0755 117.359 34.1735 117.488 33.4003 117.745C32.6271 117.983 31.9736 118.322 31.4397 118.763C30.9243 119.203 30.5377 119.735 30.28 120.358C30.0223 120.964 29.8934 121.633 29.8934 122.367C29.8934 123.302 30.1511 124.082 30.6666 124.706C31.2004 125.329 31.9 125.861 32.7652 126.302C33.6304 126.742 34.6153 127.136 35.7198 127.485C36.8243 127.833 37.9565 128.209 39.1162 128.613C40.276 128.998 41.4081 129.457 42.5126 129.988C43.6171 130.502 44.602 131.162 45.4672 131.97C46.3324 132.758 47.0228 133.73 47.5382 134.886C48.0721 136.042 48.339 137.445 48.339 139.096C48.339 140.893 48.026 142.581 47.4001 144.158C46.7927 145.718 45.8906 147.084 44.6941 148.258C43.5159 149.414 42.0708 150.331 40.3588 151.009C38.6468 151.67 36.6862 152 34.4772 152C33.207 152 31.9552 151.872 30.7218 151.615C29.4884 151.376 28.3011 151.028 27.1597 150.569C26.0368 150.111 24.9783 149.56 23.9842 148.918C22.9901 148.276 22.1065 147.561 21.3333 146.772L23.5148 143.223C23.6989 142.966 23.9382 142.755 24.2327 142.59C24.5273 142.407 24.8402 142.315 25.1716 142.315C25.6318 142.315 26.1288 142.508 26.6627 142.893C27.1965 143.26 27.8316 143.672 28.568 144.131C29.3043 144.589 30.1603 145.011 31.136 145.397C32.1301 145.763 33.3174 145.947 34.6981 145.947C36.8151 145.947 38.4535 145.452 39.6132 144.461C40.773 143.452 41.3529 142.012 41.3529 140.141C41.3529 139.096 41.0859 138.243 40.5521 137.582C40.0366 136.922 39.3463 136.372 38.4811 135.932C37.6159 135.473 36.631 135.088 35.5265 134.776C34.422 134.464 33.299 134.125 32.1577 133.758C31.0163 133.391 29.8934 132.951 28.7889 132.437C27.6844 131.924 26.6995 131.254 25.8343 130.429C24.9691 129.603 24.2695 128.576 23.7357 127.347C23.2202 126.1 22.9625 124.568 22.9625 122.752C22.9625 121.303 23.2478 119.891 23.8185 118.515C24.4076 117.139 25.2544 115.919 26.3589 114.856C27.4635 113.792 28.8257 112.939 30.4457 112.297C32.0656 111.655 33.9249 111.334 36.0235 111.334C38.3798 111.334 40.5521 111.701 42.5402 112.434C44.5284 113.168 46.222 114.195 47.6211 115.516L45.771 119.01Z" fill="#3578FF"/>
<path d="M77.6663 123.33V151.56H73.4967C72.5947 151.56 72.024 151.147 71.7847 150.322L71.3153 148.065C70.1555 149.239 68.8761 150.193 67.4771 150.927C66.078 151.642 64.4304 152 62.5343 152C60.988 152 59.6165 151.743 58.4199 151.23C57.2418 150.698 56.2477 149.955 55.4377 149.001C54.6277 148.047 54.011 146.919 53.5876 145.617C53.1827 144.296 52.9802 142.847 52.9802 141.269V123.33H59.8006V141.269C59.8006 142.994 60.1964 144.333 60.988 145.286C61.798 146.222 63.0037 146.69 64.6053 146.69C65.7835 146.69 66.888 146.433 67.9189 145.919C68.9498 145.387 69.9254 144.663 70.8459 143.746V123.33H77.6663Z" fill="#3578FF"/>
<path d="M91.2494 144.241C92.0226 145.176 92.8602 145.837 93.7622 146.222C94.6826 146.607 95.6491 146.8 96.6616 146.8C97.7109 146.8 98.6497 146.616 99.4781 146.25C100.325 145.864 101.043 145.277 101.632 144.489C102.221 143.681 102.672 142.663 102.985 141.434C103.298 140.187 103.454 138.701 103.454 136.977C103.454 133.877 102.939 131.639 101.908 130.264C100.877 128.87 99.3953 128.173 97.4624 128.173C96.1553 128.173 95.014 128.475 94.0383 129.081C93.0627 129.667 92.133 130.502 91.2494 131.584V144.241ZM91.2494 126.797C92.3907 125.605 93.6517 124.66 95.0324 123.963C96.4315 123.247 98.0238 122.89 99.8095 122.89C101.448 122.89 102.921 123.211 104.228 123.853C105.553 124.495 106.676 125.421 107.596 126.632C108.535 127.824 109.253 129.273 109.75 130.979C110.247 132.685 110.496 134.602 110.496 136.73C110.496 139.022 110.21 141.104 109.64 142.975C109.069 144.846 108.25 146.451 107.182 147.79C106.133 149.111 104.863 150.138 103.372 150.872C101.88 151.606 100.224 151.972 98.4012 151.972C97.5176 151.972 96.7168 151.881 95.9988 151.697C95.2809 151.532 94.6182 151.294 94.0107 150.982C93.4032 150.67 92.8417 150.294 92.3263 149.854C91.8293 149.395 91.3506 148.891 90.8904 148.341L90.5867 150.239C90.4762 150.716 90.2829 151.055 90.0068 151.257C89.7491 151.459 89.3901 151.56 88.9299 151.56H84.4289V110.673H91.2494V126.797Z" fill="#3578FF"/>
<path d="M122.667 110.673V151.56H115.846V110.673H122.667Z" fill="#3578FF"/>
</svg>
