<svg xmlns="http://www.w3.org/2000/svg" viewBox="0 0 800 450" width="800" height="450">
  <defs>
    <linearGradient id="sky5" x1="0" y1="0" x2="0" y2="1">
      <stop offset="0%" stop-color="#c8e8c0"/>
      <stop offset="100%" stop-color="#e8f4e0"/>
    </linearGradient>
    <linearGradient id="bamboo5" x1="0" y1="0" x2="1" y2="0">
      <stop offset="0%" stop-color="#5a8a30"/>
      <stop offset="40%" stop-color="#78b040"/>
      <stop offset="100%" stop-color="#4a7828"/>
    </linearGradient>
    <linearGradient id="ground5" x1="0" y1="0" x2="0" y2="1">
      <stop offset="0%" stop-color="#4a7828"/>
      <stop offset="100%" stop-color="#2a4a14"/>
    </linearGradient>
    <linearGradient id="path5" x1="0" y1="0" x2="0" y2="1">
      <stop offset="0%" stop-color="#c8b890"/>
      <stop offset="100%" stop-color="#a89870"/>
    </linearGradient>
    <radialGradient id="lightbeam5" cx="50%" cy="0%" r="70%">
      <stop offset="0%" stop-color="#f0ffe0" stop-opacity="0.5"/>
      <stop offset="100%" stop-color="#f0ffe0" stop-opacity="0"/>
    </radialGradient>
    <filter id="leafblur">
      <feGaussianBlur stdDeviation="1.5"/>
    </filter>
  </defs>

  <!-- Background sky through canopy -->
  <rect width="800" height="450" fill="url(#sky5)"/>

  <!-- Light shaft -->
  <rect width="800" height="450" fill="url(#lightbeam5)"/>

  <!-- Far background bamboo (blurred, light) -->
  <g opacity="0.3" filter="url(#leafblur)">
    <rect x="50" y="0" width="18" height="450" rx="9" fill="#7ab038"/>
    <rect x="120" y="0" width="16" height="450" rx="8" fill="#6a9830"/>
    <rect x="200" y="0" width="20" height="450" rx="10" fill="#78a835"/>
    <rect x="320" y="0" width="17" height="450" rx="8" fill="#6a9830"/>
    <rect x="420" y="0" width="19" height="450" rx="9" fill="#7ab038"/>
    <rect x="550" y="0" width="16" height="450" rx="8" fill="#6a9830"/>
    <rect x="640" y="0" width="20" height="450" rx="10" fill="#78a835"/>
    <rect x="730" y="0" width="17" height="450" rx="8" fill="#7ab038"/>
  </g>

  <!-- Mid bamboo stalks -->
  <g>
    <!-- Stalk 1 -->
    <rect x="20" y="0" width="24" height="450" rx="12" fill="url(#bamboo5)"/>
    <line x1="20" y1="80" x2="44" y2="80" stroke="#3a6018" stroke-width="2"/>
    <line x1="20" y1="160" x2="44" y2="160" stroke="#3a6018" stroke-width="2"/>
    <line x1="20" y1="240" x2="44" y2="240" stroke="#3a6018" stroke-width="2"/>
    <line x1="20" y1="320" x2="44" y2="320" stroke="#3a6018" stroke-width="2"/>
    <line x1="20" y1="400" x2="44" y2="400" stroke="#3a6018" stroke-width="2"/>
    <!-- Leaves from stalk 1 -->
    <ellipse cx="44" cy="78" rx="35" ry="8" fill="#5a9828" transform="rotate(-30 44 78)" opacity="0.9"/>
    <ellipse cx="20" cy="158" rx="38" ry="8" fill="#4a8820" transform="rotate(25 20 158)" opacity="0.9"/>
    <ellipse cx="44" cy="238" rx="32" ry="7" fill="#5a9828" transform="rotate(-20 44 238)" opacity="0.9"/>

    <!-- Stalk 2 -->
    <rect x="100" y="20" width="22" height="430" rx="11" fill="#6a9a30"/>
    <line x1="100" y1="100" x2="122" y2="100" stroke="#3a6018" stroke-width="2"/>
    <line x1="100" y1="185" x2="122" y2="185" stroke="#3a6018" stroke-width="2"/>
    <line x1="100" y1="270" x2="122" y2="270" stroke="#3a6018" stroke-width="2"/>
    <line x1="100" y1="355" x2="122" y2="355" stroke="#3a6018" stroke-width="2"/>
    <ellipse cx="122" cy="98" rx="36" ry="8" fill="#5a9828" transform="rotate(28 122 98)" opacity="0.9"/>
    <ellipse cx="100" cy="183" rx="33" ry="7" fill="#4a8820" transform="rotate(-22 100 183)" opacity="0.9"/>
    <ellipse cx="122" cy="268" rx="35" ry="8" fill="#5a9828" transform="rotate(18 122 268)" opacity="0.9"/>

    <!-- Stalk 3 -->
    <rect x="185" y="0" width="26" height="450" rx="13" fill="#78a838"/>
    <line x1="185" y1="70" x2="211" y2="70" stroke="#3a6018" stroke-width="2"/>
    <line x1="185" y1="155" x2="211" y2="155" stroke="#3a6018" stroke-width="2"/>
    <line x1="185" y1="245" x2="211" y2="245" stroke="#3a6018" stroke-width="2"/>
    <line x1="185" y1="335" x2="211" y2="335" stroke="#3a6018" stroke-width="2"/>
    <line x1="185" y1="415" x2="211" y2="415" stroke="#3a6018" stroke-width="2"/>
    <ellipse cx="185" cy="68" rx="40" ry="9" fill="#5a9828" transform="rotate(-35 185 68)" opacity="0.9"/>
    <ellipse cx="211" cy="153" rx="36" ry="8" fill="#4a8820" transform="rotate(30 211 153)" opacity="0.9"/>
    <ellipse cx="185" cy="243" rx="38" ry="8" fill="#5a9828" transform="rotate(-15 185 243)" opacity="0.9"/>

    <!-- Stalk 4 -->
    <rect x="290" y="10" width="20" height="440" rx="10" fill="#6a9a30"/>
    <line x1="290" y1="90" x2="310" y2="90" stroke="#3a6018" stroke-width="2"/>
    <line x1="290" y1="175" x2="310" y2="175" stroke="#3a6018" stroke-width="2"/>
    <line x1="290" y1="260" x2="310" y2="260" stroke="#3a6018" stroke-width="2"/>
    <line x1="290" y1="345" x2="310" y2="345" stroke="#3a6018" stroke-width="2"/>
    <ellipse cx="310" cy="88" rx="34" ry="7" fill="#5a9828" transform="rotate(22 310 88)" opacity="0.9"/>
    <ellipse cx="290" cy="173" rx="37" ry="8" fill="#4a8820" transform="rotate(-28 290 173)" opacity="0.9"/>

    <!-- Stalk 5 -->
    <rect x="380" y="0" width="28" height="450" rx="14" fill="#80b040"/>
    <line x1="380" y1="75" x2="408" y2="75" stroke="#3a6018" stroke-width="2"/>
    <line x1="380" y1="160" x2="408" y2="160" stroke="#3a6018" stroke-width="2"/>
    <line x1="380" y1="248" x2="408" y2="248" stroke="#3a6018" stroke-width="2"/>
    <line x1="380" y1="338" x2="408" y2="338" stroke="#3a6018" stroke-width="2"/>
    <line x1="380" y1="415" x2="408" y2="415" stroke="#3a6018" stroke-width="2"/>
    <ellipse cx="380" cy="73" rx="42" ry="9" fill="#5a9828" transform="rotate(-32 380 73)" opacity="0.9"/>
    <ellipse cx="408" cy="158" rx="38" ry="8" fill="#4a8820" transform="rotate(28 408 158)" opacity="0.9"/>
    <ellipse cx="380" cy="246" rx="40" ry="9" fill="#5a9828" transform="rotate(-18 380 246)" opacity="0.9"/>

    <!-- Stalk 6 -->
    <rect x="490" y="15" width="23" height="435" rx="11" fill="#6a9a30"/>
    <line x1="490" y1="95" x2="513" y2="95" stroke="#3a6018" stroke-width="2"/>
    <line x1="490" y1="182" x2="513" y2="182" stroke="#3a6018" stroke-width="2"/>
    <line x1="490" y1="270" x2="513" y2="270" stroke="#3a6018" stroke-width="2"/>
    <line x1="490" y1="358" x2="513" y2="358" stroke="#3a6018" stroke-width="2"/>
    <ellipse cx="513" cy="93" rx="36" ry="8" fill="#5a9828" transform="rotate(25 513 93)" opacity="0.9"/>
    <ellipse cx="490" cy="180" rx="34" ry="7" fill="#4a8820" transform="rotate(-20 490 180)" opacity="0.9"/>
    <ellipse cx="513" cy="268" rx="37" ry="8" fill="#5a9828" transform="rotate(15 513 268)" opacity="0.9"/>

    <!-- Stalk 7 -->
    <rect x="580" y="0" width="25" height="450" rx="12" fill="#78a838"/>
    <line x1="580" y1="85" x2="605" y2="85" stroke="#3a6018" stroke-width="2"/>
    <line x1="580" y1="170" x2="605" y2="170" stroke="#3a6018" stroke-width="2"/>
    <line x1="580" y1="258" x2="605" y2="258" stroke="#3a6018" stroke-width="2"/>
    <line x1="580" y1="345" x2="605" y2="345" stroke="#3a6018" stroke-width="2"/>
    <line x1="580" y1="420" x2="605" y2="420" stroke="#3a6018" stroke-width="2"/>
    <ellipse cx="580" cy="83" rx="40" ry="9" fill="#5a9828" transform="rotate(-30 580 83)" opacity="0.9"/>
    <ellipse cx="605" cy="168" rx="36" ry="8" fill="#4a8820" transform="rotate(25 605 168)" opacity="0.9"/>

    <!-- Stalk 8 -->
    <rect x="670" y="5" width="22" height="445" rx="11" fill="#6a9a30"/>
    <line x1="670" y1="90" x2="692" y2="90" stroke="#3a6018" stroke-width="2"/>
    <line x1="670" y1="178" x2="692" y2="178" stroke="#3a6018" stroke-width="2"/>
    <line x1="670" y1="265" x2="692" y2="265" stroke="#3a6018" stroke-width="2"/>
    <line x1="670" y1="352" x2="692" y2="352" stroke="#3a6018" stroke-width="2"/>
    <ellipse cx="692" cy="88" rx="35" ry="8" fill="#5a9828" transform="rotate(28 692 88)" opacity="0.9"/>
    <ellipse cx="670" cy="176" rx="38" ry="8" fill="#4a8820" transform="rotate(-24 670 176)" opacity="0.9"/>

    <!-- Stalk 9 -->
    <rect x="755" y="0" width="26" height="450" rx="13" fill="#80b040"/>
    <line x1="755" y1="80" x2="781" y2="80" stroke="#3a6018" stroke-width="2"/>
    <line x1="755" y1="165" x2="781" y2="165" stroke="#3a6018" stroke-width="2"/>
    <line x1="755" y1="252" x2="781" y2="252" stroke="#3a6018" stroke-width="2"/>
    <line x1="755" y1="340" x2="781" y2="340" stroke="#3a6018" stroke-width="2"/>
    <line x1="755" y1="418" x2="781" y2="418" stroke="#3a6018" stroke-width="2"/>
    <ellipse cx="755" cy="78" rx="38" ry="8" fill="#5a9828" transform="rotate(-26 755 78)" opacity="0.9"/>
    <ellipse cx="781" cy="163" rx="35" ry="8" fill="#4a8820" transform="rotate(20 781 163)" opacity="0.9"/>
  </g>

  <!-- Ground -->
  <rect x="0" y="390" width="800" height="60" fill="url(#ground5)" rx="0"/>

  <!-- Path -->
  <polygon points="350,450 370,390 430,390 450,450" fill="url(#path5)" opacity="0.85"/>

  <!-- Ground moss / fallen leaves -->
  <ellipse cx="150" cy="420" rx="60" ry="15" fill="#3a6018" opacity="0.7"/>
  <ellipse cx="640" cy="415" rx="65" ry="16" fill="#3a6018" opacity="0.7"/>
  <ellipse cx="300" cy="430" rx="45" ry="12" fill="#4a7820" opacity="0.6"/>
  <ellipse cx="510" cy="428" rx="48" ry="12" fill="#4a7820" opacity="0.6"/>

  <!-- Dappled light on ground -->
  <ellipse cx="200" cy="410" rx="30" ry="12" fill="#c8e8a0" opacity="0.4"/>
  <ellipse cx="580" cy="405" rx="25" ry="10" fill="#c8e8a0" opacity="0.35"/>
  <ellipse cx="400" cy="400" rx="20" ry="8" fill="#d0f0b0" opacity="0.45"/>
</svg>
